# MagicaVoxel @ Ephtracy

# group
g _Lvl2 Enter

# material
mtllib _Lvl2 Enter.mtl
usemtl palette

# normals
vn -1 0 0
vn 1 0 0
vn 0 0 1
vn 0 0 -1
vn 0 -1 0
vn 0 1 0

# texcoords
vt 0.947266 0.5
vt 0.990234 0.5

# verts
v -55 8 6
v -55 8 4
v -55 15 8
v -55 15 6
v -55 15 -20
v -55 15 -25
v -55 17 4
v -55 17 -0
v -55 17 -16
v -55 17 -20
v -55 18 9
v -55 18 8
v -55 19 4
v -55 19 -0
v -55 19 -16
v -55 19 -20
v -55 20 5
v -55 20 4
v -55 21 9
v -55 21 5
v -55 21 -20
v -55 21 -25
v -54 0 8
v -54 0 3
v -54 8 6
v -54 8 4
v -54 10 -22
v -54 10 -24
v -54 15 8
v -54 15 6
v -54 15 3
v -54 15 -20
v -54 15 -22
v -54 15 -24
v -54 17 4
v -54 17 -0
v -54 17 -16
v -54 17 -20
v -54 19 4
v -54 19 -0
v -54 19 -16
v -54 19 -20
v -54 20 4
v -54 20 -20
v -53 0 -20
v -53 0 -25
v -53 10 -22
v -53 10 -24
v -53 15 -20
v -53 15 -22
v -53 15 -24
v -53 15 -25
v -50 18 9
v -50 18 8
v -50 21 9
v -50 21 8
v -49 0 8
v -49 0 3
v -49 15 3
v -49 15 -20
v -49 20 5
v -49 20 -20
v -49 21 8
v -49 21 5
v -48 0 -20
v -48 0 -25
v -48 21 -20
v -48 21 -25
v -55 18 9
v -55 21 9
v -50 18 9
v -50 21 9
v -55 15 8
v -55 18 8
v -54 0 8
v -54 15 8
v -50 18 8
v -50 21 8
v -49 0 8
v -49 21 8
v -55 8 6
v -55 15 6
v -54 8 6
v -54 15 6
v -55 17 -16
v -55 19 -16
v -54 17 -16
v -54 19 -16
v -55 15 -20
v -55 17 -20
v -55 19 -20
v -55 21 -20
v -54 15 -20
v -54 17 -20
v -54 19 -20
v -54 20 -20
v -53 0 -20
v -53 15 -20
v -49 15 -20
v -49 20 -20
v -48 0 -20
v -48 21 -20
v -54 10 -22
v -54 15 -22
v -53 10 -22
v -53 15 -22
v -55 20 5
v -55 21 5
v -49 20 5
v -49 21 5
v -55 8 4
v -55 17 4
v -55 19 4
v -55 20 4
v -54 8 4
v -54 17 4
v -54 19 4
v -54 20 4
v -54 0 3
v -54 15 3
v -49 0 3
v -49 15 3
v -55 17 -0
v -55 19 -0
v -54 17 -0
v -54 19 -0
v -54 10 -24
v -54 15 -24
v -53 10 -24
v -53 15 -24
v -55 15 -25
v -55 21 -25
v -53 0 -25
v -53 15 -25
v -48 0 -25
v -48 21 -25
v -54 0 8
v -49 0 8
v -53 0 7
v -50 0 7
v -53 0 4
v -50 0 4
v -54 0 3
v -49 0 3
v -53 0 -20
v -48 0 -20
v -52 0 -21
v -49 0 -21
v -52 0 -24
v -49 0 -24
v -53 0 -25
v -48 0 -25
v -55 8 6
v -54 8 6
v -55 8 4
v -54 8 4
v -54 10 -22
v -53 10 -22
v -54 10 -24
v -53 10 -24
v -55 15 8
v -54 15 8
v -55 15 6
v -54 15 6
v -54 15 3
v -49 15 3
v -55 15 -20
v -54 15 -20
v -53 15 -20
v -49 15 -20
v -54 15 -22
v -53 15 -22
v -54 15 -24
v -53 15 -24
v -55 15 -25
v -53 15 -25
v -55 17 4
v -54 17 4
v -55 17 -0
v -54 17 -0
v -55 17 -16
v -54 17 -16
v -55 17 -20
v -54 17 -20
v -55 18 9
v -50 18 9
v -55 18 8
v -50 18 8
v -55 19 4
v -54 19 4
v -55 19 -0
v -54 19 -0
v -55 19 -16
v -54 19 -16
v -55 19 -20
v -54 19 -20
v -55 20 5
v -49 20 5
v -55 20 4
v -54 20 4
v -54 20 -20
v -49 20 -20
v -55 21 9
v -50 21 9
v -50 21 8
v -49 21 8
v -55 21 5
v -49 21 5
v -55 21 -20
v -48 21 -20
v -55 21 -25
v -48 21 -25

# faces
f 4/2/1 2/2/1 1/2/1
f 7/2/1 2/2/1 4/2/1
f 7/2/1 4/2/1 3/2/1
f 10/2/1 6/2/1 5/2/1
f 12/2/1 8/2/1 7/2/1
f 12/2/1 7/2/1 3/2/1
f 13/2/1 8/2/1 12/2/1
f 13/2/1 12/2/1 11/2/1
f 14/2/1 8/2/1 13/2/1
f 15/2/1 10/2/1 9/2/1
f 16/2/1 6/2/1 10/2/1
f 16/2/1 10/2/1 15/2/1
f 17/2/1 13/2/1 11/2/1
f 18/2/1 13/2/1 17/2/1
f 19/2/1 17/2/1 11/2/1
f 20/2/1 17/2/1 19/2/1
f 21/2/1 6/2/1 16/2/1
f 22/2/1 6/2/1 21/2/1
f 25/2/1 24/2/1 23/2/1
f 26/2/1 24/2/1 25/2/1
f 29/2/1 25/2/1 23/2/1
f 30/2/1 25/2/1 29/2/1
f 31/2/1 24/2/1 26/2/1
f 33/2/1 28/2/1 27/2/1
f 34/2/1 28/2/1 33/2/1
f 35/2/1 32/2/1 31/2/1
f 35/2/1 31/2/1 26/2/1
f 36/2/1 32/2/1 35/2/1
f 37/2/1 32/2/1 36/2/1
f 38/2/1 32/2/1 37/2/1
f 40/2/1 37/2/1 36/2/1
f 41/2/1 37/2/1 40/2/1
f 43/2/1 40/2/1 39/2/1
f 43/2/1 42/2/1 41/2/1
f 43/2/1 41/2/1 40/2/1
f 44/2/1 42/2/1 43/2/1
f 47/2/1 46/2/1 45/2/1
f 48/2/1 46/2/1 47/2/1
f 49/2/1 47/2/1 45/2/1
f 50/2/1 47/2/1 49/2/1
f 51/2/1 46/2/1 48/2/1
f 52/2/1 46/2/1 51/2/1
f 53/2/2 54/2/2 55/2/2
f 55/2/2 54/2/2 56/2/2
f 57/2/2 58/2/2 59/2/2
f 57/2/2 59/2/2 61/2/2
f 59/2/2 60/2/2 61/2/2
f 61/2/2 60/2/2 62/2/2
f 57/2/2 61/2/2 63/2/2
f 63/2/2 61/2/2 64/2/2
f 65/2/2 66/2/2 67/2/2
f 67/2/2 66/2/2 68/2/2
f 71/2/3 70/2/3 69/2/3
f 72/2/3 70/2/3 71/2/3
f 76/2/3 74/2/3 73/2/3
f 77/2/3 74/2/3 76/2/3
f 77/2/3 76/2/3 75/2/3
f 79/2/3 77/2/3 75/2/3
f 79/2/3 78/2/3 77/2/3
f 80/2/3 78/2/3 79/2/3
f 83/2/3 82/2/3 81/2/3
f 84/2/3 82/2/3 83/2/3
f 87/2/3 86/2/3 85/2/3
f 88/2/3 86/2/3 87/2/3
f 93/2/3 90/2/3 89/2/3
f 94/2/3 90/2/3 93/2/3
f 95/2/3 92/2/3 91/2/3
f 96/2/3 92/2/3 95/2/3
f 99/2/3 98/2/3 97/2/3
f 100/2/3 92/2/3 96/2/3
f 101/2/3 99/2/3 97/2/3
f 101/2/3 100/2/3 99/2/3
f 102/2/3 92/2/3 100/2/3
f 102/2/3 100/2/3 101/2/3
f 105/2/3 104/2/3 103/2/3
f 106/2/3 104/2/3 105/2/3
f 107/2/4 108/2/4 109/2/4
f 109/2/4 108/2/4 110/2/4
f 111/2/4 112/2/4 115/2/4
f 115/2/4 112/2/4 116/2/4
f 113/2/4 114/2/4 117/2/4
f 117/2/4 114/2/4 118/2/4
f 119/2/4 120/2/4 121/2/4
f 121/2/4 120/2/4 122/2/4
f 123/2/4 124/2/4 125/2/4
f 125/2/4 124/2/4 126/2/4
f 127/2/4 128/2/4 129/2/4
f 129/2/4 128/2/4 130/2/4
f 131/2/4 132/2/4 134/2/4
f 133/2/4 134/2/4 135/2/4
f 134/2/4 132/2/4 136/2/4
f 135/2/4 134/2/4 136/2/4
f 139/2/5 138/2/5 137/2/5
f 140/2/5 138/2/5 139/2/5
f 141/2/5 139/2/5 137/2/5
f 141/1/5 140/1/5 139/1/5
f 142/2/5 138/2/5 140/2/5
f 142/1/5 140/1/5 141/1/5
f 143/2/5 141/2/5 137/2/5
f 143/2/5 142/2/5 141/2/5
f 144/2/5 138/2/5 142/2/5
f 144/2/5 142/2/5 143/2/5
f 147/2/5 146/2/5 145/2/5
f 148/2/5 146/2/5 147/2/5
f 149/2/5 147/2/5 145/2/5
f 149/1/5 148/1/5 147/1/5
f 150/2/5 146/2/5 148/2/5
f 150/1/5 148/1/5 149/1/5
f 151/2/5 149/2/5 145/2/5
f 151/2/5 150/2/5 149/2/5
f 152/2/5 146/2/5 150/2/5
f 152/2/5 150/2/5 151/2/5
f 155/2/5 154/2/5 153/2/5
f 156/2/5 154/2/5 155/2/5
f 159/2/5 158/2/5 157/2/5
f 160/2/5 158/2/5 159/2/5
f 163/2/5 162/2/5 161/2/5
f 164/2/5 162/2/5 163/2/5
f 168/2/5 166/2/5 165/2/5
f 169/2/5 166/2/5 168/2/5
f 170/2/5 166/2/5 169/2/5
f 171/2/5 168/2/5 167/2/5
f 171/2/5 169/2/5 168/2/5
f 172/2/5 169/2/5 171/2/5
f 173/2/5 171/2/5 167/2/5
f 175/2/5 173/2/5 167/2/5
f 175/2/5 174/2/5 173/2/5
f 176/2/5 174/2/5 175/2/5
f 179/2/5 178/2/5 177/2/5
f 180/2/5 178/2/5 179/2/5
f 183/2/5 182/2/5 181/2/5
f 184/2/5 182/2/5 183/2/5
f 187/2/5 186/2/5 185/2/5
f 188/2/5 186/2/5 187/2/5
f 189/2/6 190/2/6 191/2/6
f 191/2/6 190/2/6 192/2/6
f 193/2/6 194/2/6 195/2/6
f 195/2/6 194/2/6 196/2/6
f 197/2/6 198/2/6 199/2/6
f 199/2/6 198/2/6 200/2/6
f 200/2/6 198/2/6 201/2/6
f 201/2/6 198/2/6 202/2/6
f 203/2/6 204/2/6 205/2/6
f 203/2/6 205/2/6 207/2/6
f 205/2/6 206/2/6 207/2/6
f 207/2/6 206/2/6 208/2/6
f 209/2/6 210/2/6 211/2/6
f 211/2/6 210/2/6 212/2/6
