# MagicaVoxel @ Ephtracy

# group
g HEND

# material
mtllib HEND.mtl
usemtl palette

# normals
vn -1 0 0
vn 1 0 0
vn 0 0 1
vn 0 0 -1
vn 0 -1 0
vn 0 1 0

# texcoords
vt 0.986328 0.5
vt 0.990234 0.5
vt 0.994141 0.5

# verts
v -3 3 -2
v -3 3 -3
v -3 4 -2
v -3 4 -3
v -2 1 -2
v -2 1 -3
v -2 3 1
v -2 3 -2
v -2 3 -3
v -2 3 -4
v -2 4 -0
v -2 4 -2
v -2 4 -3
v -2 4 -4
v -2 5 -2
v -2 5 -3
v -2 6 1
v -2 6 -0
v -2 6 -2
v -2 6 -3
v -1 1 -2
v -1 1 -3
v -1 3 1
v -1 3 -2
v -1 3 -3
v -1 3 -4
v -1 4 -0
v -1 4 -2
v -1 4 -3
v -1 4 -4
v -1 5 -2
v -1 5 -3
v -1 6 1
v -1 6 -0
v -1 6 -2
v -1 6 -3
v -2 3 1
v -2 6 1
v -1 3 1
v -1 6 1
v -3 3 -2
v -3 4 -2
v -2 1 -2
v -2 3 -2
v -2 4 -2
v -2 5 -2
v -2 6 -2
v -1 1 -2
v -1 3 -2
v -1 4 -2
v -1 5 -2
v -1 6 -2
v -2 4 -0
v -2 6 -0
v -1 4 -0
v -1 6 -0
v -3 3 -3
v -3 4 -3
v -2 1 -3
v -2 3 -3
v -2 4 -3
v -2 5 -3
v -2 6 -3
v -1 1 -3
v -1 3 -3
v -1 4 -3
v -1 5 -3
v -1 6 -3
v -2 3 -4
v -2 4 -4
v -1 3 -4
v -1 4 -4
v -2 1 -2
v -1 1 -2
v -2 1 -3
v -1 1 -3
v -2 3 1
v -1 3 1
v -3 3 -2
v -2 3 -2
v -1 3 -2
v -3 3 -3
v -2 3 -3
v -1 3 -3
v -2 3 -4
v -1 3 -4
v -2 4 -0
v -1 4 -0
v -3 4 -2
v -2 4 -2
v -1 4 -2
v -3 4 -3
v -2 4 -3
v -1 4 -3
v -2 4 -4
v -1 4 -4
v -2 6 1
v -1 6 1
v -2 6 -0
v -1 6 -0
v -2 6 -2
v -1 6 -2
v -2 6 -3
v -1 6 -3

# faces
f 3/1/1 2/1/1 1/1/1
f 4/1/1 2/1/1 3/1/1
f 8/2/1 6/2/1 5/2/1
f 9/2/1 6/2/1 8/2/1
f 11/1/1 8/1/1 7/1/1
f 12/1/1 8/1/1 11/1/1
f 13/1/1 10/1/1 9/1/1
f 14/1/1 10/1/1 13/1/1
f 15/2/1 13/2/1 12/2/1
f 16/2/1 13/2/1 15/2/1
f 17/1/1 11/1/1 7/1/1
f 18/1/1 11/1/1 17/1/1
f 19/3/1 16/3/1 15/3/1
f 20/3/1 16/3/1 19/3/1
f 21/2/2 22/2/2 24/2/2
f 24/2/2 22/2/2 25/2/2
f 23/1/2 24/1/2 27/1/2
f 24/2/2 25/2/2 28/2/2
f 27/1/2 24/1/2 28/1/2
f 25/1/2 26/1/2 29/1/2
f 28/2/2 25/2/2 29/2/2
f 29/1/2 26/1/2 30/1/2
f 28/2/2 29/2/2 31/2/2
f 31/2/2 29/2/2 32/2/2
f 23/1/2 27/1/2 33/1/2
f 33/1/2 27/1/2 34/1/2
f 31/3/2 32/3/2 35/3/2
f 35/3/2 32/3/2 36/3/2
f 39/1/3 38/1/3 37/1/3
f 40/1/3 38/1/3 39/1/3
f 44/1/3 42/1/3 41/1/3
f 45/1/3 42/1/3 44/1/3
f 48/2/3 44/2/3 43/2/3
f 49/2/3 44/2/3 48/2/3
f 50/2/3 46/2/3 45/2/3
f 51/3/3 47/3/3 46/3/3
f 51/2/3 46/2/3 50/2/3
f 52/3/3 47/3/3 51/3/3
f 53/1/4 54/1/4 55/1/4
f 55/1/4 54/1/4 56/1/4
f 57/1/4 58/1/4 60/1/4
f 60/1/4 58/1/4 61/1/4
f 59/2/4 60/2/4 64/2/4
f 64/2/4 60/2/4 65/2/4
f 61/2/4 62/2/4 66/2/4
f 62/3/4 63/3/4 67/3/4
f 66/2/4 62/2/4 67/2/4
f 67/3/4 63/3/4 68/3/4
f 69/1/4 70/1/4 71/1/4
f 71/1/4 70/1/4 72/1/4
f 75/2/5 74/2/5 73/2/5
f 76/2/5 74/2/5 75/2/5
f 80/1/5 78/1/5 77/1/5
f 81/1/5 78/1/5 80/1/5
f 82/1/5 80/1/5 79/1/5
f 83/1/5 80/1/5 82/1/5
f 85/1/5 84/1/5 83/1/5
f 86/1/5 84/1/5 85/1/5
f 87/1/6 88/1/6 90/1/6
f 90/1/6 88/1/6 91/1/6
f 89/1/6 90/1/6 92/1/6
f 92/1/6 90/1/6 93/1/6
f 93/1/6 94/1/6 95/1/6
f 95/1/6 94/1/6 96/1/6
f 97/1/6 98/1/6 99/1/6
f 99/1/6 98/1/6 100/1/6
f 101/3/6 102/3/6 103/3/6
f 103/3/6 102/3/6 104/3/6
