# MagicaVoxel @ Ephtracy

# group
g Message

# material
mtllib Message.mtl
usemtl palette

# normals
vn -1 0 0
vn 1 0 0
vn 0 0 1
vn 0 0 -1
vn 0 -1 0
vn 0 1 0

# texcoords
vt 0.955078 0.5
vt 0.986328 0.5
vt 0.990234 0.5
vt 0.994141 0.5

# verts
v -7.5 19 0.5
v -7.5 19 -0.5
v -7.5 22 0.5
v -7.5 22 -0.5
v -6.5 18 0.5
v -6.5 18 -0.5
v -6.5 19 0.5
v -6.5 19 -0.5
v -6.5 22 0.5
v -6.5 22 -0.5
v -6.5 23 0.5
v -6.5 23 -0.5
v -4.5 17 0.5
v -4.5 17 -0.5
v -4.5 18 0.5
v -4.5 18 -0.5
v -4.5 23 0.5
v -4.5 23 -0.5
v -4.5 24 0.5
v -4.5 24 -0.5
v -3.5 0 3.5
v -3.5 0 2.5
v -3.5 0 -2.5
v -3.5 0 -3.5
v -3.5 1 3.5
v -3.5 1 2.5
v -3.5 1 -2.5
v -3.5 1 -3.5
v -2.5 1 2.5
v -2.5 1 1.5
v -2.5 1 -1.5
v -2.5 1 -2.5
v -2.5 2 2.5
v -2.5 2 1.5
v -2.5 2 -1.5
v -2.5 2 -2.5
v -1.5 2 1.5
v -1.5 2 -1.5
v -1.5 3 1.5
v -1.5 3 -1.5
v -0.5 3 0.5
v -0.5 3 -0.5
v -0.5 17 0.5
v -0.5 17 -0.5
v 1.5 1 2.5
v 1.5 1 1.5
v 1.5 1 -1.5
v 1.5 1 -2.5
v 1.5 2 2.5
v 1.5 2 1.5
v 1.5 2 -1.5
v 1.5 2 -2.5
v 2.5 0 3.5
v 2.5 0 2.5
v 2.5 0 -2.5
v 2.5 0 -3.5
v 2.5 1 3.5
v 2.5 1 2.5
v 2.5 1 -2.5
v 2.5 1 -3.5
v -2.5 0 3.5
v -2.5 0 2.5
v -2.5 0 -2.5
v -2.5 0 -3.5
v -2.5 1 3.5
v -2.5 1 2.5
v -2.5 1 -2.5
v -2.5 1 -3.5
v -1.5 1 2.5
v -1.5 1 1.5
v -1.5 1 -1.5
v -1.5 1 -2.5
v -1.5 2 2.5
v -1.5 2 1.5
v -1.5 2 -1.5
v -1.5 2 -2.5
v 0.5 3 0.5
v 0.5 3 -0.5
v 0.5 17 0.5
v 0.5 17 -0.5
v 1.5 2 1.5
v 1.5 2 -1.5
v 1.5 3 1.5
v 1.5 3 -1.5
v 2.5 1 2.5
v 2.5 1 1.5
v 2.5 1 -1.5
v 2.5 1 -2.5
v 2.5 2 2.5
v 2.5 2 1.5
v 2.5 2 -1.5
v 2.5 2 -2.5
v 3.5 0 3.5
v 3.5 0 2.5
v 3.5 0 -2.5
v 3.5 0 -3.5
v 3.5 1 3.5
v 3.5 1 2.5
v 3.5 1 -2.5
v 3.5 1 -3.5
v 4.5 17 0.5
v 4.5 17 -0.5
v 4.5 18 0.5
v 4.5 18 -0.5
v 4.5 23 0.5
v 4.5 23 -0.5
v 4.5 24 0.5
v 4.5 24 -0.5
v 6.5 18 0.5
v 6.5 18 -0.5
v 6.5 19 0.5
v 6.5 19 -0.5
v 6.5 22 0.5
v 6.5 22 -0.5
v 6.5 23 0.5
v 6.5 23 -0.5
v 7.5 19 0.5
v 7.5 19 -0.5
v 7.5 22 0.5
v 7.5 22 -0.5
v -3.5 0 3.5
v -3.5 1 3.5
v -2.5 0 3.5
v -2.5 1 3.5
v 2.5 0 3.5
v 2.5 1 3.5
v 3.5 0 3.5
v 3.5 1 3.5
v -2.5 1 2.5
v -2.5 2 2.5
v -1.5 1 2.5
v -1.5 2 2.5
v 1.5 1 2.5
v 1.5 2 2.5
v 2.5 1 2.5
v 2.5 2 2.5
v -1.5 2 1.5
v -1.5 3 1.5
v 1.5 2 1.5
v 1.5 3 1.5
v -7.5 19 0.5
v -7.5 22 0.5
v -6.5 18 0.5
v -6.5 19 0.5
v -6.5 22 0.5
v -6.5 23 0.5
v -4.5 17 0.5
v -4.5 18 0.5
v -4.5 19 0.5
v -4.5 22 0.5
v -4.5 23 0.5
v -4.5 24 0.5
v -0.5 3 0.5
v -0.5 17 0.5
v -0.5 18 0.5
v -0.5 19 0.5
v 0.5 3 0.5
v 0.5 17 0.5
v 0.5 18 0.5
v 0.5 19 0.5
v 4.5 17 0.5
v 4.5 18 0.5
v 4.5 19 0.5
v 4.5 22 0.5
v 4.5 23 0.5
v 4.5 24 0.5
v 6.5 18 0.5
v 6.5 19 0.5
v 6.5 22 0.5
v 6.5 23 0.5
v 7.5 19 0.5
v 7.5 22 0.5
v -2.5 1 -1.5
v -2.5 2 -1.5
v -1.5 1 -1.5
v -1.5 2 -1.5
v 1.5 1 -1.5
v 1.5 2 -1.5
v 2.5 1 -1.5
v 2.5 2 -1.5
v -3.5 0 -2.5
v -3.5 1 -2.5
v -2.5 0 -2.5
v -2.5 1 -2.5
v 2.5 0 -2.5
v 2.5 1 -2.5
v 3.5 0 -2.5
v 3.5 1 -2.5
v -3.5 0 2.5
v -3.5 1 2.5
v -2.5 0 2.5
v -2.5 1 2.5
v 2.5 0 2.5
v 2.5 1 2.5
v 3.5 0 2.5
v 3.5 1 2.5
v -2.5 1 1.5
v -2.5 2 1.5
v -1.5 1 1.5
v -1.5 2 1.5
v 1.5 1 1.5
v 1.5 2 1.5
v 2.5 1 1.5
v 2.5 2 1.5
v -7.5 19 -0.5
v -7.5 22 -0.5
v -6.5 18 -0.5
v -6.5 19 -0.5
v -6.5 22 -0.5
v -6.5 23 -0.5
v -4.5 17 -0.5
v -4.5 18 -0.5
v -4.5 19 -0.5
v -4.5 22 -0.5
v -4.5 23 -0.5
v -4.5 24 -0.5
v -0.5 3 -0.5
v -0.5 17 -0.5
v -0.5 18 -0.5
v -0.5 19 -0.5
v 0.5 3 -0.5
v 0.5 17 -0.5
v 0.5 18 -0.5
v 0.5 19 -0.5
v 4.5 17 -0.5
v 4.5 18 -0.5
v 4.5 19 -0.5
v 4.5 22 -0.5
v 4.5 23 -0.5
v 4.5 24 -0.5
v 6.5 18 -0.5
v 6.5 19 -0.5
v 6.5 22 -0.5
v 6.5 23 -0.5
v 7.5 19 -0.5
v 7.5 22 -0.5
v -1.5 2 -1.5
v -1.5 3 -1.5
v 1.5 2 -1.5
v 1.5 3 -1.5
v -2.5 1 -2.5
v -2.5 2 -2.5
v -1.5 1 -2.5
v -1.5 2 -2.5
v 1.5 1 -2.5
v 1.5 2 -2.5
v 2.5 1 -2.5
v 2.5 2 -2.5
v -3.5 0 -3.5
v -3.5 1 -3.5
v -2.5 0 -3.5
v -2.5 1 -3.5
v 2.5 0 -3.5
v 2.5 1 -3.5
v 3.5 0 -3.5
v 3.5 1 -3.5
v -3.5 0 3.5
v -2.5 0 3.5
v 2.5 0 3.5
v 3.5 0 3.5
v -3.5 0 2.5
v -2.5 0 2.5
v 2.5 0 2.5
v 3.5 0 2.5
v -3.5 0 -2.5
v -2.5 0 -2.5
v 2.5 0 -2.5
v 3.5 0 -2.5
v -3.5 0 -3.5
v -2.5 0 -3.5
v 2.5 0 -3.5
v 3.5 0 -3.5
v -2.5 1 2.5
v -1.5 1 2.5
v 1.5 1 2.5
v 2.5 1 2.5
v -2.5 1 1.5
v -1.5 1 1.5
v 1.5 1 1.5
v 2.5 1 1.5
v -2.5 1 -1.5
v -1.5 1 -1.5
v 1.5 1 -1.5
v 2.5 1 -1.5
v -2.5 1 -2.5
v -1.5 1 -2.5
v 1.5 1 -2.5
v 2.5 1 -2.5
v -1.5 2 1.5
v 1.5 2 1.5
v -1.5 2 -1.5
v 1.5 2 -1.5
v -4.5 17 0.5
v -0.5 17 0.5
v 0.5 17 0.5
v 4.5 17 0.5
v -4.5 17 -0.5
v -0.5 17 -0.5
v 0.5 17 -0.5
v 4.5 17 -0.5
v -6.5 18 0.5
v -4.5 18 0.5
v 4.5 18 0.5
v 6.5 18 0.5
v -6.5 18 -0.5
v -4.5 18 -0.5
v 4.5 18 -0.5
v 6.5 18 -0.5
v -7.5 19 0.5
v -6.5 19 0.5
v 6.5 19 0.5
v 7.5 19 0.5
v -7.5 19 -0.5
v -6.5 19 -0.5
v 6.5 19 -0.5
v 7.5 19 -0.5
v -3.5 1 3.5
v -2.5 1 3.5
v 2.5 1 3.5
v 3.5 1 3.5
v -3.5 1 2.5
v -2.5 1 2.5
v 2.5 1 2.5
v 3.5 1 2.5
v -3.5 1 -2.5
v -2.5 1 -2.5
v 2.5 1 -2.5
v 3.5 1 -2.5
v -3.5 1 -3.5
v -2.5 1 -3.5
v 2.5 1 -3.5
v 3.5 1 -3.5
v -2.5 2 2.5
v -1.5 2 2.5
v 1.5 2 2.5
v 2.5 2 2.5
v -2.5 2 1.5
v -1.5 2 1.5
v 1.5 2 1.5
v 2.5 2 1.5
v -2.5 2 -1.5
v -1.5 2 -1.5
v 1.5 2 -1.5
v 2.5 2 -1.5
v -2.5 2 -2.5
v -1.5 2 -2.5
v 1.5 2 -2.5
v 2.5 2 -2.5
v -1.5 3 1.5
v 1.5 3 1.5
v -0.5 3 0.5
v 0.5 3 0.5
v -0.5 3 -0.5
v 0.5 3 -0.5
v -1.5 3 -1.5
v 1.5 3 -1.5
v -7.5 22 0.5
v -6.5 22 0.5
v 6.5 22 0.5
v 7.5 22 0.5
v -7.5 22 -0.5
v -6.5 22 -0.5
v 6.5 22 -0.5
v 7.5 22 -0.5
v -6.5 23 0.5
v -4.5 23 0.5
v 4.5 23 0.5
v 6.5 23 0.5
v -6.5 23 -0.5
v -4.5 23 -0.5
v 4.5 23 -0.5
v 6.5 23 -0.5
v -4.5 24 0.5
v 4.5 24 0.5
v -4.5 24 -0.5
v 4.5 24 -0.5

# faces
f 3/2/1 2/2/1 1/2/1
f 4/2/1 2/2/1 3/2/1
f 7/2/1 6/2/1 5/2/1
f 8/2/1 6/2/1 7/2/1
f 11/2/1 10/2/1 9/2/1
f 12/2/1 10/2/1 11/2/1
f 15/2/1 14/2/1 13/2/1
f 16/2/1 14/2/1 15/2/1
f 19/2/1 18/2/1 17/2/1
f 20/2/1 18/2/1 19/2/1
f 25/4/1 22/4/1 21/4/1
f 26/4/1 22/4/1 25/4/1
f 27/4/1 24/4/1 23/4/1
f 28/4/1 24/4/1 27/4/1
f 33/4/1 30/4/1 29/4/1
f 34/4/1 30/4/1 33/4/1
f 35/4/1 32/4/1 31/4/1
f 36/4/1 32/4/1 35/4/1
f 39/4/1 38/4/1 37/4/1
f 40/4/1 38/4/1 39/4/1
f 43/3/1 42/3/1 41/3/1
f 44/3/1 42/3/1 43/3/1
f 49/4/1 46/4/1 45/4/1
f 50/4/1 46/4/1 49/4/1
f 51/4/1 48/4/1 47/4/1
f 52/4/1 48/4/1 51/4/1
f 57/4/1 54/4/1 53/4/1
f 58/4/1 54/4/1 57/4/1
f 59/4/1 56/4/1 55/4/1
f 60/4/1 56/4/1 59/4/1
f 61/4/2 62/4/2 65/4/2
f 65/4/2 62/4/2 66/4/2
f 63/4/2 64/4/2 67/4/2
f 67/4/2 64/4/2 68/4/2
f 69/4/2 70/4/2 73/4/2
f 73/4/2 70/4/2 74/4/2
f 71/4/2 72/4/2 75/4/2
f 75/4/2 72/4/2 76/4/2
f 77/3/2 78/3/2 79/3/2
f 79/3/2 78/3/2 80/3/2
f 81/4/2 82/4/2 83/4/2
f 83/4/2 82/4/2 84/4/2
f 85/4/2 86/4/2 89/4/2
f 89/4/2 86/4/2 90/4/2
f 87/4/2 88/4/2 91/4/2
f 91/4/2 88/4/2 92/4/2
f 93/4/2 94/4/2 97/4/2
f 97/4/2 94/4/2 98/4/2
f 95/4/2 96/4/2 99/4/2
f 99/4/2 96/4/2 100/4/2
f 101/2/2 102/2/2 103/2/2
f 103/2/2 102/2/2 104/2/2
f 105/2/2 106/2/2 107/2/2
f 107/2/2 106/2/2 108/2/2
f 109/2/2 110/2/2 111/2/2
f 111/2/2 110/2/2 112/2/2
f 113/2/2 114/2/2 115/2/2
f 115/2/2 114/2/2 116/2/2
f 117/2/2 118/2/2 119/2/2
f 119/2/2 118/2/2 120/2/2
f 123/4/3 122/4/3 121/4/3
f 124/4/3 122/4/3 123/4/3
f 127/4/3 126/4/3 125/4/3
f 128/4/3 126/4/3 127/4/3
f 131/4/3 130/4/3 129/4/3
f 132/4/3 130/4/3 131/4/3
f 135/4/3 134/4/3 133/4/3
f 136/4/3 134/4/3 135/4/3
f 139/4/3 138/4/3 137/4/3
f 140/4/3 138/4/3 139/4/3
f 144/2/3 142/2/3 141/2/3
f 145/2/3 142/2/3 144/2/3
f 148/2/3 144/2/3 143/2/3
f 149/1/3 145/1/3 144/1/3
f 149/2/3 144/2/3 148/2/3
f 150/2/3 146/2/3 145/2/3
f 150/1/3 145/1/3 149/1/3
f 151/2/3 146/2/3 150/2/3
f 154/2/3 148/2/3 147/2/3
f 155/1/3 149/1/3 148/1/3
f 155/1/3 150/1/3 149/1/3
f 155/2/3 148/2/3 154/2/3
f 155/1/3 151/1/3 150/1/3
f 156/1/3 151/1/3 155/1/3
f 157/3/3 154/3/3 153/3/3
f 157/3/3 155/3/3 154/3/3
f 157/3/3 156/3/3 155/3/3
f 158/3/3 156/3/3 157/3/3
f 159/3/3 156/3/3 158/3/3
f 160/1/3 151/1/3 156/1/3
f 160/3/3 156/3/3 159/3/3
f 161/2/3 159/2/3 158/2/3
f 162/1/3 160/1/3 159/1/3
f 162/2/3 159/2/3 161/2/3
f 163/1/3 151/1/3 160/1/3
f 163/1/3 160/1/3 162/1/3
f 164/1/3 151/1/3 163/1/3
f 165/2/3 152/2/3 151/2/3
f 165/1/3 151/1/3 164/1/3
f 166/2/3 152/2/3 165/2/3
f 167/2/3 163/2/3 162/2/3
f 168/1/3 164/1/3 163/1/3
f 168/2/3 163/2/3 167/2/3
f 169/2/3 165/2/3 164/2/3
f 169/1/3 164/1/3 168/1/3
f 170/2/3 165/2/3 169/2/3
f 171/2/3 169/2/3 168/2/3
f 172/2/3 169/2/3 171/2/3
f 175/4/3 174/4/3 173/4/3
f 176/4/3 174/4/3 175/4/3
f 179/4/3 178/4/3 177/4/3
f 180/4/3 178/4/3 179/4/3
f 183/4/3 182/4/3 181/4/3
f 184/4/3 182/4/3 183/4/3
f 187/4/3 186/4/3 185/4/3
f 188/4/3 186/4/3 187/4/3
f 189/4/4 190/4/4 191/4/4
f 191/4/4 190/4/4 192/4/4
f 193/4/4 194/4/4 195/4/4
f 195/4/4 194/4/4 196/4/4
f 197/4/4 198/4/4 199/4/4
f 199/4/4 198/4/4 200/4/4
f 201/4/4 202/4/4 203/4/4
f 203/4/4 202/4/4 204/4/4
f 205/2/4 206/2/4 208/2/4
f 208/2/4 206/2/4 209/2/4
f 207/2/4 208/2/4 212/2/4
f 208/1/4 209/1/4 213/1/4
f 212/2/4 208/2/4 213/2/4
f 209/2/4 210/2/4 214/2/4
f 213/1/4 209/1/4 214/1/4
f 214/2/4 210/2/4 215/2/4
f 211/2/4 212/2/4 218/2/4
f 212/1/4 213/1/4 219/1/4
f 213/1/4 214/1/4 219/1/4
f 218/2/4 212/2/4 219/2/4
f 214/1/4 215/1/4 219/1/4
f 219/1/4 215/1/4 220/1/4
f 217/3/4 218/3/4 221/3/4
f 218/3/4 219/3/4 221/3/4
f 219/3/4 220/3/4 221/3/4
f 221/3/4 220/3/4 222/3/4
f 222/3/4 220/3/4 223/3/4
f 220/1/4 215/1/4 224/1/4
f 223/3/4 220/3/4 224/3/4
f 222/2/4 223/2/4 225/2/4
f 223/1/4 224/1/4 226/1/4
f 225/2/4 223/2/4 226/2/4
f 224/1/4 215/1/4 227/1/4
f 226/1/4 224/1/4 227/1/4
f 227/1/4 215/1/4 228/1/4
f 215/2/4 216/2/4 229/2/4
f 228/1/4 215/1/4 229/1/4
f 229/2/4 216/2/4 230/2/4
f 226/2/4 227/2/4 231/2/4
f 227/1/4 228/1/4 232/1/4
f 231/2/4 227/2/4 232/2/4
f 228/2/4 229/2/4 233/2/4
f 232/1/4 228/1/4 233/1/4
f 233/2/4 229/2/4 234/2/4
f 232/2/4 233/2/4 235/2/4
f 235/2/4 233/2/4 236/2/4
f 237/4/4 238/4/4 239/4/4
f 239/4/4 238/4/4 240/4/4
f 241/4/4 242/4/4 243/4/4
f 243/4/4 242/4/4 244/4/4
f 245/4/4 246/4/4 247/4/4
f 247/4/4 246/4/4 248/4/4
f 249/4/4 250/4/4 251/4/4
f 251/4/4 250/4/4 252/4/4
f 253/4/4 254/4/4 255/4/4
f 255/4/4 254/4/4 256/4/4
f 261/4/5 258/4/5 257/4/5
f 262/4/5 258/4/5 261/4/5
f 263/4/5 260/4/5 259/4/5
f 264/4/5 260/4/5 263/4/5
f 269/4/5 266/4/5 265/4/5
f 270/4/5 266/4/5 269/4/5
f 271/4/5 268/4/5 267/4/5
f 272/4/5 268/4/5 271/4/5
f 277/4/5 274/4/5 273/4/5
f 278/4/5 274/4/5 277/4/5
f 279/4/5 276/4/5 275/4/5
f 280/4/5 276/4/5 279/4/5
f 285/4/5 282/4/5 281/4/5
f 286/4/5 282/4/5 285/4/5
f 287/4/5 284/4/5 283/4/5
f 288/4/5 284/4/5 287/4/5
f 291/4/5 290/4/5 289/4/5
f 292/4/5 290/4/5 291/4/5
f 297/2/5 294/2/5 293/2/5
f 298/2/5 294/2/5 297/2/5
f 299/2/5 296/2/5 295/2/5
f 300/2/5 296/2/5 299/2/5
f 305/2/5 302/2/5 301/2/5
f 306/2/5 302/2/5 305/2/5
f 307/2/5 304/2/5 303/2/5
f 308/2/5 304/2/5 307/2/5
f 313/2/5 310/2/5 309/2/5
f 314/2/5 310/2/5 313/2/5
f 315/2/5 312/2/5 311/2/5
f 316/2/5 312/2/5 315/2/5
f 317/4/6 318/4/6 321/4/6
f 321/4/6 318/4/6 322/4/6
f 319/4/6 320/4/6 323/4/6
f 323/4/6 320/4/6 324/4/6
f 325/4/6 326/4/6 329/4/6
f 329/4/6 326/4/6 330/4/6
f 327/4/6 328/4/6 331/4/6
f 331/4/6 328/4/6 332/4/6
f 333/4/6 334/4/6 337/4/6
f 337/4/6 334/4/6 338/4/6
f 335/4/6 336/4/6 339/4/6
f 339/4/6 336/4/6 340/4/6
f 341/4/6 342/4/6 345/4/6
f 345/4/6 342/4/6 346/4/6
f 343/4/6 344/4/6 347/4/6
f 347/4/6 344/4/6 348/4/6
f 349/4/6 350/4/6 351/4/6
f 351/4/6 350/4/6 352/4/6
f 349/4/6 351/4/6 353/4/6
f 352/4/6 350/4/6 354/4/6
f 349/4/6 353/4/6 355/4/6
f 353/4/6 354/4/6 355/4/6
f 354/4/6 350/4/6 356/4/6
f 355/4/6 354/4/6 356/4/6
f 357/2/6 358/2/6 361/2/6
f 361/2/6 358/2/6 362/2/6
f 359/2/6 360/2/6 363/2/6
f 363/2/6 360/2/6 364/2/6
f 365/2/6 366/2/6 369/2/6
f 369/2/6 366/2/6 370/2/6
f 367/2/6 368/2/6 371/2/6
f 371/2/6 368/2/6 372/2/6
f 373/2/6 374/2/6 375/2/6
f 375/2/6 374/2/6 376/2/6
