# MagicaVoxel @ Ephtracy

# group
g mostlvl

# material
mtllib mostlvl.mtl
usemtl palette

# normals
vn -1 0 0
vn 1 0 0
vn 0 0 1
vn 0 0 -1
vn 0 -1 0
vn 0 1 0

# texcoords
vt 0.955078 0.5
vt 0.986328 0.5
vt 0.990234 0.5
vt 0.994141 0.5

# verts
v -8 10 16.5
v -8 10 12.5
v -8 10 11.5
v -8 10 8.5
v -8 10 5.5
v -8 10 2.5
v -8 10 1.5
v -8 10 -2.5
v -8 10 -4.5
v -8 10 -8.5
v -8 10 -10.5
v -8 10 -12.5
v -8 10 -13.5
v -8 10 -16.5
v -8 10 -17.5
v -8 11 16.5
v -8 11 15.5
v -8 11 12.5
v -8 11 11.5
v -8 11 8.5
v -8 11 5.5
v -8 11 2.5
v -8 11 1.5
v -8 11 0.5
v -8 11 -2.5
v -8 11 -4.5
v -8 11 -8.5
v -8 11 -10.5
v -8 11 -12.5
v -8 11 -13.5
v -8 11 -16.5
v -8 15 15.5
v -8 15 1.5
v -8 15 0.5
v -8 15 -16.5
v -8 16 15.5
v -8 16 1.5
v -8 16 0.5
v -8 16 -16.5
v -8 18 16.5
v -8 18 15.5
v -8 18 1.5
v -8 18 0.5
v -8 18 -16.5
v -8 18 -17.5
v -8 19 16.5
v -8 19 15.5
v -8 19 1.5
v -8 19 0.5
v -8 19 -16.5
v -8 19 -17.5
v -7 9 17.5
v -7 9 -17.5
v -7 10 17.5
v -7 10 16.5
v -7 10 12.5
v -7 10 11.5
v -7 10 8.5
v -7 10 5.5
v -7 10 2.5
v -7 10 1.5
v -7 10 -2.5
v -7 10 -4.5
v -7 10 -8.5
v -7 10 -9.5
v -7 10 -10.5
v -7 10 -12.5
v -7 10 -13.5
v -7 10 -16.5
v -7 10 -17.5
v -7 11 12.5
v -7 11 11.5
v -7 11 8.5
v -7 11 5.5
v -7 11 2.5
v -7 11 1.5
v -7 11 -2.5
v -7 11 -4.5
v -7 11 -8.5
v -7 11 -9.5
v -7 11 -10.5
v -7 11 -12.5
v -7 11 -13.5
v 5 9 16.5
v 5 9 -17.5
v 5 10 16.5
v 5 10 12.5
v 5 10 11.5
v 5 10 8.5
v 5 10 5.5
v 5 10 2.5
v 5 10 1.5
v 5 10 -2.5
v 5 10 -4.5
v 5 10 -9.5
v 5 10 -10.5
v 5 10 -12.5
v 5 10 -13.5
v 5 10 -16.5
v 5 10 -17.5
v 7 11 16.5
v 7 11 15.5
v 7 11 1.5
v 7 11 0.5
v 7 11 -16.5
v 7 11 -17.5
v 7 15 15.5
v 7 15 1.5
v 7 15 0.5
v 7 15 -16.5
v 7 16 15.5
v 7 16 1.5
v 7 16 0.5
v 7 16 -16.5
v 7 18 16.5
v 7 18 15.5
v 7 18 1.5
v 7 18 0.5
v 7 18 -16.5
v 7 18 -17.5
v 7 19 16.5
v 7 19 15.5
v 7 19 1.5
v 7 19 0.5
v 7 19 -16.5
v 7 19 -17.5
v -7 11 16.5
v -7 11 15.5
v -7 11 1.5
v -7 11 0.5
v -7 11 -16.5
v -7 11 -17.5
v -7 15 15.5
v -7 15 1.5
v -7 15 0.5
v -7 15 -16.5
v -7 16 15.5
v -7 16 1.5
v -7 16 0.5
v -7 16 -16.5
v -7 18 16.5
v -7 18 15.5
v -7 18 1.5
v -7 18 0.5
v -7 18 -16.5
v -7 18 -17.5
v -7 19 16.5
v -7 19 15.5
v -7 19 1.5
v -7 19 0.5
v -7 19 -16.5
v -7 19 -17.5
v -5 9 17.5
v -5 9 -17.5
v -5 10 17.5
v -5 10 16.5
v -5 10 12.5
v -5 10 11.5
v -5 10 8.5
v -5 10 5.5
v -5 10 2.5
v -5 10 1.5
v -5 10 -2.5
v -5 10 -4.5
v -5 10 -8.5
v -5 10 -10.5
v -5 10 -12.5
v -5 10 -13.5
v -5 10 -16.5
v -5 10 -17.5
v 7 9 16.5
v 7 9 -17.5
v 7 10 16.5
v 7 10 12.5
v 7 10 11.5
v 7 10 8.5
v 7 10 5.5
v 7 10 2.5
v 7 10 1.5
v 7 10 -2.5
v 7 10 -4.5
v 7 10 -9.5
v 7 10 -10.5
v 7 10 -12.5
v 7 10 -13.5
v 7 10 -16.5
v 7 10 -17.5
v 7 11 12.5
v 7 11 11.5
v 7 11 8.5
v 7 11 5.5
v 7 11 2.5
v 7 11 1.5
v 7 11 -2.5
v 7 11 -4.5
v 7 11 -9.5
v 7 11 -10.5
v 7 11 -12.5
v 7 11 -13.5
v 8 10 16.5
v 8 10 12.5
v 8 10 11.5
v 8 10 8.5
v 8 10 5.5
v 8 10 2.5
v 8 10 1.5
v 8 10 -2.5
v 8 10 -4.5
v 8 10 -9.5
v 8 10 -10.5
v 8 10 -12.5
v 8 10 -13.5
v 8 10 -16.5
v 8 10 -17.5
v 8 11 16.5
v 8 11 15.5
v 8 11 12.5
v 8 11 11.5
v 8 11 8.5
v 8 11 5.5
v 8 11 2.5
v 8 11 1.5
v 8 11 0.5
v 8 11 -2.5
v 8 11 -4.5
v 8 11 -9.5
v 8 11 -10.5
v 8 11 -12.5
v 8 11 -13.5
v 8 11 -16.5
v 8 15 15.5
v 8 15 1.5
v 8 15 0.5
v 8 15 -16.5
v 8 16 15.5
v 8 16 1.5
v 8 16 0.5
v 8 16 -16.5
v 8 18 16.5
v 8 18 15.5
v 8 18 1.5
v 8 18 0.5
v 8 18 -16.5
v 8 18 -17.5
v 8 19 16.5
v 8 19 15.5
v 8 19 1.5
v 8 19 0.5
v 8 19 -16.5
v 8 19 -17.5
v -7 9 17.5
v -7 10 17.5
v -5 9 17.5
v -5 10 17.5
v -8 10 16.5
v -8 11 16.5
v -8 18 16.5
v -8 19 16.5
v -7 10 16.5
v -7 11 16.5
v -7 18 16.5
v -7 19 16.5
v -6 10 16.5
v -6 11 16.5
v -5 10 16.5
v 5 9 16.5
v 5 10 16.5
v 6 10 16.5
v 6 11 16.5
v 7 9 16.5
v 7 10 16.5
v 7 11 16.5
v 7 18 16.5
v 7 19 16.5
v 8 10 16.5
v 8 11 16.5
v 8 18 16.5
v 8 19 16.5
v -8 10 11.5
v -8 11 11.5
v -7 10 11.5
v -7 11 11.5
v 7 10 11.5
v 7 11 11.5
v 8 10 11.5
v 8 11 11.5
v -8 10 5.5
v -8 11 5.5
v -7 10 5.5
v -7 11 5.5
v 7 10 5.5
v 7 11 5.5
v 8 10 5.5
v 8 11 5.5
v -8 10 1.5
v -8 11 1.5
v -8 15 1.5
v -8 16 1.5
v -8 18 1.5
v -8 19 1.5
v -7 10 1.5
v -7 11 1.5
v -7 15 1.5
v -7 16 1.5
v -7 18 1.5
v -7 19 1.5
v 7 10 1.5
v 7 11 1.5
v 7 15 1.5
v 7 16 1.5
v 7 18 1.5
v 7 19 1.5
v 8 10 1.5
v 8 11 1.5
v 8 15 1.5
v 8 16 1.5
v 8 18 1.5
v 8 19 1.5
v -8 10 -4.5
v -8 11 -4.5
v -7 10 -4.5
v -7 11 -4.5
v 7 10 -4.5
v 7 11 -4.5
v 8 10 -4.5
v 8 11 -4.5
v -8 10 -10.5
v -8 11 -10.5
v -7 10 -10.5
v -7 11 -10.5
v 7 10 -10.5
v 7 11 -10.5
v 8 10 -10.5
v 8 11 -10.5
v -8 10 -13.5
v -8 11 -13.5
v -7 10 -13.5
v -7 11 -13.5
v 7 10 -13.5
v 7 11 -13.5
v 8 10 -13.5
v 8 11 -13.5
v -8 11 -16.5
v -8 15 -16.5
v -8 16 -16.5
v -8 18 -16.5
v -8 19 -16.5
v -7 11 -16.5
v -7 15 -16.5
v -7 16 -16.5
v -7 18 -16.5
v -7 19 -16.5
v 7 11 -16.5
v 7 15 -16.5
v 7 16 -16.5
v 7 18 -16.5
v 7 19 -16.5
v 8 11 -16.5
v 8 15 -16.5
v 8 16 -16.5
v 8 18 -16.5
v 8 19 -16.5
v -8 11 15.5
v -8 15 15.5
v -8 16 15.5
v -8 18 15.5
v -8 19 15.5
v -7 11 15.5
v -7 15 15.5
v -7 16 15.5
v -7 18 15.5
v -7 19 15.5
v 7 11 15.5
v 7 15 15.5
v 7 16 15.5
v 7 18 15.5
v 7 19 15.5
v 8 11 15.5
v 8 15 15.5
v 8 16 15.5
v 8 18 15.5
v 8 19 15.5
v -8 10 12.5
v -8 11 12.5
v -7 10 12.5
v -7 11 12.5
v 7 10 12.5
v 7 11 12.5
v 8 10 12.5
v 8 11 12.5
v -8 10 8.5
v -8 11 8.5
v -7 10 8.5
v -7 11 8.5
v 7 10 8.5
v 7 11 8.5
v 8 10 8.5
v 8 11 8.5
v -8 10 2.5
v -8 11 2.5
v -7 10 2.5
v -7 11 2.5
v 7 10 2.5
v 7 11 2.5
v 8 10 2.5
v 8 11 2.5
v -8 11 0.5
v -8 15 0.5
v -8 16 0.5
v -8 18 0.5
v -8 19 0.5
v -7 11 0.5
v -7 15 0.5
v -7 16 0.5
v -7 18 0.5
v -7 19 0.5
v 7 11 0.5
v 7 15 0.5
v 7 16 0.5
v 7 18 0.5
v 7 19 0.5
v 8 11 0.5
v 8 15 0.5
v 8 16 0.5
v 8 18 0.5
v 8 19 0.5
v -8 10 -2.5
v -8 11 -2.5
v -7 10 -2.5
v -7 11 -2.5
v 7 10 -2.5
v 7 11 -2.5
v 8 10 -2.5
v 8 11 -2.5
v -8 10 -8.5
v -8 11 -8.5
v -7 10 -8.5
v -7 11 -8.5
v 7 10 -9.5
v 7 11 -9.5
v 8 10 -9.5
v 8 11 -9.5
v -8 10 -12.5
v -8 11 -12.5
v -7 10 -12.5
v -7 11 -12.5
v 7 10 -12.5
v 7 11 -12.5
v 8 10 -12.5
v 8 11 -12.5
v -8 10 -17.5
v -8 18 -17.5
v -8 19 -17.5
v -7 9 -17.5
v -7 10 -17.5
v -7 11 -17.5
v -7 18 -17.5
v -7 19 -17.5
v -5 9 -17.5
v -5 10 -17.5
v 5 9 -17.5
v 5 10 -17.5
v 7 9 -17.5
v 7 10 -17.5
v 7 11 -17.5
v 7 18 -17.5
v 7 19 -17.5
v 8 10 -17.5
v 8 18 -17.5
v 8 19 -17.5
v -7 9 17.5
v -5 9 17.5
v 5 9 16.5
v 7 9 16.5
v -7 9 -17.5
v -5 9 -17.5
v 5 9 -17.5
v 7 9 -17.5
v -8 10 16.5
v -7 10 16.5
v -5 10 16.5
v 5 10 16.5
v 7 10 16.5
v 8 10 16.5
v -8 10 12.5
v -7 10 12.5
v -5 10 12.5
v 5 10 12.5
v 7 10 12.5
v 8 10 12.5
v -8 10 11.5
v -7 10 11.5
v -5 10 11.5
v 5 10 11.5
v 7 10 11.5
v 8 10 11.5
v -8 10 8.5
v -7 10 8.5
v -5 10 8.5
v 5 10 8.5
v 7 10 8.5
v 8 10 8.5
v -8 10 5.5
v -7 10 5.5
v -5 10 5.5
v 5 10 5.5
v 7 10 5.5
v 8 10 5.5
v -8 10 2.5
v -7 10 2.5
v -5 10 2.5
v 5 10 2.5
v 7 10 2.5
v 8 10 2.5
v -8 10 1.5
v -7 10 1.5
v -5 10 1.5
v 5 10 1.5
v 7 10 1.5
v 8 10 1.5
v -8 10 -2.5
v -7 10 -2.5
v -5 10 -2.5
v 5 10 -2.5
v 7 10 -2.5
v 8 10 -2.5
v -8 10 -4.5
v -7 10 -4.5
v -5 10 -4.5
v 5 10 -4.5
v 7 10 -4.5
v 8 10 -4.5
v -8 10 -8.5
v -7 10 -8.5
v -5 10 -8.5
v 1 10 -8.5
v 1 10 -9.5
v 5 10 -9.5
v 7 10 -9.5
v 8 10 -9.5
v -8 10 -10.5
v -7 10 -10.5
v -5 10 -10.5
v 5 10 -10.5
v 7 10 -10.5
v 8 10 -10.5
v -8 10 -12.5
v -7 10 -12.5
v -5 10 -12.5
v 5 10 -12.5
v 7 10 -12.5
v 8 10 -12.5
v -8 10 -13.5
v -7 10 -13.5
v -5 10 -13.5
v 5 10 -13.5
v 7 10 -13.5
v 8 10 -13.5
v -8 10 -16.5
v -7 10 -16.5
v -5 10 -16.5
v 5 10 -16.5
v 7 10 -16.5
v 8 10 -16.5
v -8 10 -17.5
v -7 10 -17.5
v -5 10 -17.5
v 5 10 -17.5
v 7 10 -17.5
v 8 10 -17.5
v -8 15 15.5
v -7 15 15.5
v 7 15 15.5
v 8 15 15.5
v -8 15 1.5
v -7 15 1.5
v 7 15 1.5
v 8 15 1.5
v -8 15 0.5
v -7 15 0.5
v 7 15 0.5
v 8 15 0.5
v -8 15 -16.5
v -7 15 -16.5
v 7 15 -16.5
v 8 15 -16.5
v -7 10 17.5
v -5 10 17.5
v -7 10 16.5
v -6 10 16.5
v -5 10 16.5
v -7 11 16.5
v -6 11 16.5
v 6 11 16.5
v 7 11 16.5
v -8 11 15.5
v -7 11 15.5
v -6 11 15.5
v 6 11 15.5
v 7 11 15.5
v 8 11 15.5
v -8 11 12.5
v -7 11 12.5
v 7 11 12.5
v 8 11 12.5
v -8 11 11.5
v -7 11 11.5
v 7 11 11.5
v 8 11 11.5
v -7 11 10.5
v -6 11 10.5
v 6 11 10.5
v 7 11 10.5
v -7 11 9.5
v -6 11 9.5
v 6 11 9.5
v 7 11 9.5
v -8 11 8.5
v -7 11 8.5
v 7 11 8.5
v 8 11 8.5
v -8 11 5.5
v -7 11 5.5
v 7 11 5.5
v 8 11 5.5
v -7 11 3.5
v -6 11 3.5
v 6 11 3.5
v 7 11 3.5
v -8 11 2.5
v -7 11 2.5
v -6 11 2.5
v 6 11 2.5
v 7 11 2.5
v 8 11 2.5
v -7 11 1.5
v 7 11 1.5
v -8 11 0.5
v -7 11 0.5
v 7 11 0.5
v 8 11 0.5
v -7 11 -1.5
v -6 11 -1.5
v 6 11 -1.5
v 7 11 -1.5
v -8 11 -2.5
v -7 11 -2.5
v -6 11 -2.5
v 6 11 -2.5
v 7 11 -2.5
v 8 11 -2.5
v -8 11 -4.5
v -7 11 -4.5
v 7 11 -4.5
v 8 11 -4.5
v -8 11 -8.5
v -7 11 -8.5
v 1 11 -8.5
v -7 11 -9.5
v -6 11 -9.5
v 1 11 -9.5
v 6 11 -9.5
v 7 11 -9.5
v 8 11 -9.5
v -8 11 -10.5
v -7 11 -10.5
v -6 11 -10.5
v 6 11 -10.5
v 7 11 -10.5
v 8 11 -10.5
v -8 11 -12.5
v -7 11 -12.5
v 7 11 -12.5
v 8 11 -12.5
v -8 11 -13.5
v -7 11 -13.5
v -6 11 -13.5
v 6 11 -13.5
v 7 11 -13.5
v 8 11 -13.5
v -7 11 -14.5
v -6 11 -14.5
v 6 11 -14.5
v 7 11 -14.5
v -8 11 -16.5
v -7 11 -16.5
v 7 11 -16.5
v 8 11 -16.5
v -7 11 -17.5
v 7 11 -17.5
v -8 16 15.5
v -7 16 15.5
v 7 16 15.5
v 8 16 15.5
v -8 16 1.5
v -7 16 1.5
v 7 16 1.5
v 8 16 1.5
v -8 16 0.5
v -7 16 0.5
v 7 16 0.5
v 8 16 0.5
v -8 16 -16.5
v -7 16 -16.5
v 7 16 -16.5
v 8 16 -16.5
v -8 19 16.5
v -7 19 16.5
v 7 19 16.5
v 8 19 16.5
v -8 19 15.5
v -7 19 15.5
v 7 19 15.5
v 8 19 15.5
v -8 19 1.5
v -7 19 1.5
v 7 19 1.5
v 8 19 1.5
v -8 19 0.5
v -7 19 0.5
v 7 19 0.5
v 8 19 0.5
v -8 19 -16.5
v -7 19 -16.5
v 7 19 -16.5
v 8 19 -16.5
v -8 19 -17.5
v -7 19 -17.5
v 7 19 -17.5
v 8 19 -17.5

# faces
f 16/2/1 2/2/1 1/2/1
f 17/2/1 2/2/1 16/2/1
f 18/2/1 2/2/1 17/2/1
f 19/2/1 4/2/1 3/2/1
f 20/2/1 4/2/1 19/2/1
f 21/2/1 6/2/1 5/2/1
f 22/2/1 6/2/1 21/2/1
f 23/2/1 8/2/1 7/2/1
f 24/2/1 8/2/1 23/2/1
f 25/2/1 8/2/1 24/2/1
f 26/2/1 10/2/1 9/2/1
f 27/2/1 10/2/1 26/2/1
f 28/2/1 12/2/1 11/2/1
f 29/2/1 12/2/1 28/2/1
f 30/2/1 14/2/1 13/2/1
f 31/3/1 15/3/1 14/3/1
f 31/2/1 14/2/1 30/2/1
f 32/3/1 17/3/1 16/3/1
f 33/3/1 24/3/1 23/3/1
f 34/3/1 24/3/1 33/3/1
f 35/3/1 15/3/1 31/3/1
f 36/3/1 34/3/1 33/3/1
f 36/3/1 35/3/1 34/3/1
f 36/3/1 32/3/1 16/3/1
f 36/3/1 33/3/1 32/3/1
f 37/3/1 35/3/1 36/3/1
f 38/3/1 35/3/1 37/3/1
f 39/3/1 15/3/1 35/3/1
f 39/3/1 35/3/1 38/3/1
f 40/3/1 36/3/1 16/3/1
f 41/3/1 36/3/1 40/3/1
f 42/3/1 38/3/1 37/3/1
f 43/3/1 38/3/1 42/3/1
f 44/3/1 15/3/1 39/3/1
f 45/3/1 15/3/1 44/3/1
f 46/4/1 41/4/1 40/4/1
f 47/4/1 41/4/1 46/4/1
f 48/4/1 43/4/1 42/4/1
f 49/4/1 43/4/1 48/4/1
f 50/4/1 45/4/1 44/4/1
f 51/4/1 45/4/1 50/4/1
f 54/3/1 53/3/1 52/3/1
f 55/3/1 53/3/1 54/3/1
f 56/3/1 53/3/1 55/3/1
f 57/3/1 53/3/1 56/3/1
f 58/3/1 53/3/1 57/3/1
f 59/3/1 53/3/1 58/3/1
f 60/3/1 53/3/1 59/3/1
f 61/3/1 53/3/1 60/3/1
f 62/3/1 53/3/1 61/3/1
f 63/3/1 53/3/1 62/3/1
f 64/3/1 53/3/1 63/3/1
f 65/3/1 53/3/1 64/3/1
f 66/3/1 53/3/1 65/3/1
f 67/3/1 53/3/1 66/3/1
f 68/3/1 53/3/1 67/3/1
f 69/3/1 53/3/1 68/3/1
f 70/3/1 53/3/1 69/3/1
f 71/3/1 57/3/1 56/3/1
f 72/3/1 57/3/1 71/3/1
f 73/3/1 59/3/1 58/3/1
f 74/3/1 59/3/1 73/3/1
f 75/3/1 61/3/1 60/3/1
f 76/3/1 61/3/1 75/3/1
f 77/3/1 63/3/1 62/3/1
f 78/3/1 63/3/1 77/3/1
f 79/3/1 65/3/1 64/3/1
f 80/1/1 66/1/1 65/1/1
f 80/3/1 65/3/1 79/3/1
f 81/1/1 66/1/1 80/1/1
f 82/3/1 68/3/1 67/3/1
f 83/3/1 68/3/1 82/3/1
f 86/3/1 85/3/1 84/3/1
f 87/3/1 85/3/1 86/3/1
f 88/3/1 85/3/1 87/3/1
f 89/3/1 85/3/1 88/3/1
f 90/3/1 85/3/1 89/3/1
f 91/3/1 85/3/1 90/3/1
f 92/3/1 85/3/1 91/3/1
f 93/3/1 85/3/1 92/3/1
f 94/3/1 85/3/1 93/3/1
f 95/3/1 85/3/1 94/3/1
f 96/3/1 85/3/1 95/3/1
f 97/3/1 85/3/1 96/3/1
f 98/3/1 85/3/1 97/3/1
f 99/3/1 85/3/1 98/3/1
f 100/3/1 85/3/1 99/3/1
f 107/3/1 102/3/1 101/3/1
f 108/3/1 104/3/1 103/3/1
f 109/3/1 104/3/1 108/3/1
f 110/3/1 106/3/1 105/3/1
f 111/3/1 109/3/1 108/3/1
f 111/3/1 110/3/1 109/3/1
f 111/3/1 107/3/1 101/3/1
f 111/3/1 108/3/1 107/3/1
f 112/3/1 110/3/1 111/3/1
f 113/3/1 110/3/1 112/3/1
f 114/3/1 106/3/1 110/3/1
f 114/3/1 110/3/1 113/3/1
f 115/3/1 111/3/1 101/3/1
f 116/3/1 111/3/1 115/3/1
f 117/3/1 113/3/1 112/3/1
f 118/3/1 113/3/1 117/3/1
f 119/3/1 106/3/1 114/3/1
f 120/3/1 106/3/1 119/3/1
f 121/4/1 116/4/1 115/4/1
f 122/4/1 116/4/1 121/4/1
f 123/4/1 118/4/1 117/4/1
f 124/4/1 118/4/1 123/4/1
f 125/4/1 120/4/1 119/4/1
f 126/4/1 120/4/1 125/4/1
f 127/3/2 128/3/2 133/3/2
f 129/3/2 130/3/2 134/3/2
f 134/3/2 130/3/2 135/3/2
f 131/3/2 132/3/2 136/3/2
f 134/3/2 135/3/2 137/3/2
f 135/3/2 136/3/2 137/3/2
f 127/3/2 133/3/2 137/3/2
f 133/3/2 134/3/2 137/3/2
f 137/3/2 136/3/2 138/3/2
f 138/3/2 136/3/2 139/3/2
f 136/3/2 132/3/2 140/3/2
f 139/3/2 136/3/2 140/3/2
f 127/3/2 137/3/2 141/3/2
f 141/3/2 137/3/2 142/3/2
f 138/3/2 139/3/2 143/3/2
f 143/3/2 139/3/2 144/3/2
f 140/3/2 132/3/2 145/3/2
f 145/3/2 132/3/2 146/3/2
f 141/4/2 142/4/2 147/4/2
f 147/4/2 142/4/2 148/4/2
f 143/4/2 144/4/2 149/4/2
f 149/4/2 144/4/2 150/4/2
f 145/4/2 146/4/2 151/4/2
f 151/4/2 146/4/2 152/4/2
f 153/3/2 154/3/2 155/3/2
f 155/3/2 154/3/2 156/3/2
f 156/3/2 154/3/2 157/3/2
f 157/3/2 154/3/2 158/3/2
f 158/3/2 154/3/2 159/3/2
f 159/3/2 154/3/2 160/3/2
f 160/3/2 154/3/2 161/3/2
f 161/3/2 154/3/2 162/3/2
f 162/3/2 154/3/2 163/3/2
f 163/3/2 154/3/2 164/3/2
f 164/3/2 154/3/2 165/3/2
f 165/3/2 154/3/2 166/3/2
f 166/3/2 154/3/2 167/3/2
f 167/3/2 154/3/2 168/3/2
f 168/3/2 154/3/2 169/3/2
f 169/3/2 154/3/2 170/3/2
f 171/3/2 172/3/2 173/3/2
f 173/3/2 172/3/2 174/3/2
f 174/3/2 172/3/2 175/3/2
f 175/3/2 172/3/2 176/3/2
f 176/3/2 172/3/2 177/3/2
f 177/3/2 172/3/2 178/3/2
f 178/3/2 172/3/2 179/3/2
f 179/3/2 172/3/2 180/3/2
f 180/3/2 172/3/2 181/3/2
f 181/3/2 172/3/2 182/3/2
f 182/3/2 172/3/2 183/3/2
f 183/3/2 172/3/2 184/3/2
f 184/3/2 172/3/2 185/3/2
f 185/3/2 172/3/2 186/3/2
f 186/3/2 172/3/2 187/3/2
f 174/3/2 175/3/2 188/3/2
f 188/3/2 175/3/2 189/3/2
f 176/3/2 177/3/2 190/3/2
f 190/3/2 177/3/2 191/3/2
f 178/3/2 179/3/2 192/3/2
f 192/3/2 179/3/2 193/3/2
f 180/3/2 181/3/2 194/3/2
f 194/3/2 181/3/2 195/3/2
f 182/1/2 183/1/2 196/1/2
f 196/1/2 183/1/2 197/1/2
f 184/3/2 185/3/2 198/3/2
f 198/3/2 185/3/2 199/3/2
f 200/2/2 201/2/2 215/2/2
f 215/2/2 201/2/2 216/2/2
f 216/2/2 201/2/2 217/2/2
f 202/2/2 203/2/2 218/2/2
f 218/2/2 203/2/2 219/2/2
f 204/2/2 205/2/2 220/2/2
f 220/2/2 205/2/2 221/2/2
f 206/2/2 207/2/2 222/2/2
f 222/2/2 207/2/2 223/2/2
f 223/2/2 207/2/2 224/2/2
f 208/2/2 209/2/2 225/2/2
f 225/2/2 209/2/2 226/2/2
f 210/2/2 211/2/2 227/2/2
f 227/2/2 211/2/2 228/2/2
f 212/2/2 213/2/2 229/2/2
f 213/3/2 214/3/2 230/3/2
f 229/2/2 213/2/2 230/2/2
f 215/3/2 216/3/2 231/3/2
f 222/3/2 223/3/2 232/3/2
f 232/3/2 223/3/2 233/3/2
f 230/3/2 214/3/2 234/3/2
f 232/3/2 233/3/2 235/3/2
f 233/3/2 234/3/2 235/3/2
f 215/3/2 231/3/2 235/3/2
f 231/3/2 232/3/2 235/3/2
f 235/3/2 234/3/2 236/3/2
f 236/3/2 234/3/2 237/3/2
f 234/3/2 214/3/2 238/3/2
f 237/3/2 234/3/2 238/3/2
f 215/3/2 235/3/2 239/3/2
f 239/3/2 235/3/2 240/3/2
f 236/3/2 237/3/2 241/3/2
f 241/3/2 237/3/2 242/3/2
f 238/3/2 214/3/2 243/3/2
f 243/3/2 214/3/2 244/3/2
f 239/4/2 240/4/2 245/4/2
f 245/4/2 240/4/2 246/4/2
f 241/4/2 242/4/2 247/4/2
f 247/4/2 242/4/2 248/4/2
f 243/4/2 244/4/2 249/4/2
f 249/4/2 244/4/2 250/4/2
f 253/3/3 252/3/3 251/3/3
f 254/3/3 252/3/3 253/3/3
f 259/2/3 256/2/3 255/2/3
f 260/3/3 257/3/3 256/3/3
f 260/2/3 256/2/3 259/2/3
f 261/4/3 258/4/3 257/4/3
f 261/3/3 257/3/3 260/3/3
f 262/4/3 258/4/3 261/4/3
f 263/1/3 260/1/3 259/1/3
f 264/1/3 260/1/3 263/1/3
f 265/2/3 264/2/3 263/2/3
f 267/2/3 264/2/3 265/2/3
f 268/2/3 264/2/3 267/2/3
f 268/3/3 267/3/3 266/3/3
f 269/2/3 264/2/3 268/2/3
f 270/3/3 268/3/3 266/3/3
f 271/1/3 269/1/3 268/1/3
f 271/3/3 268/3/3 270/3/3
f 272/1/3 269/1/3 271/1/3
f 275/2/3 272/2/3 271/2/3
f 276/3/3 273/3/3 272/3/3
f 276/2/3 272/2/3 275/2/3
f 277/4/3 274/4/3 273/4/3
f 277/3/3 273/3/3 276/3/3
f 278/4/3 274/4/3 277/4/3
f 281/2/3 280/2/3 279/2/3
f 282/2/3 280/2/3 281/2/3
f 285/2/3 284/2/3 283/2/3
f 286/2/3 284/2/3 285/2/3
f 289/2/3 288/2/3 287/2/3
f 290/2/3 288/2/3 289/2/3
f 293/2/3 292/2/3 291/2/3
f 294/2/3 292/2/3 293/2/3
f 301/2/3 296/2/3 295/2/3
f 302/3/3 297/3/3 296/3/3
f 302/2/3 296/2/3 301/2/3
f 303/3/3 297/3/3 302/3/3
f 304/3/3 299/3/3 298/3/3
f 305/4/3 300/4/3 299/4/3
f 305/3/3 299/3/3 304/3/3
f 306/4/3 300/4/3 305/4/3
f 313/2/3 308/2/3 307/2/3
f 314/3/3 309/3/3 308/3/3
f 314/2/3 308/2/3 313/2/3
f 315/3/3 309/3/3 314/3/3
f 316/3/3 311/3/3 310/3/3
f 317/4/3 312/4/3 311/4/3
f 317/3/3 311/3/3 316/3/3
f 318/4/3 312/4/3 317/4/3
f 321/2/3 320/2/3 319/2/3
f 322/2/3 320/2/3 321/2/3
f 325/2/3 324/2/3 323/2/3
f 326/2/3 324/2/3 325/2/3
f 329/2/3 328/2/3 327/2/3
f 330/2/3 328/2/3 329/2/3
f 333/2/3 332/2/3 331/2/3
f 334/2/3 332/2/3 333/2/3
f 337/2/3 336/2/3 335/2/3
f 338/2/3 336/2/3 337/2/3
f 341/2/3 340/2/3 339/2/3
f 342/2/3 340/2/3 341/2/3
f 348/3/3 344/3/3 343/3/3
f 349/3/3 344/3/3 348/3/3
f 350/3/3 346/3/3 345/3/3
f 351/4/3 347/4/3 346/4/3
f 351/3/3 346/3/3 350/3/3
f 352/4/3 347/4/3 351/4/3
f 358/3/3 354/3/3 353/3/3
f 359/3/3 354/3/3 358/3/3
f 360/3/3 356/3/3 355/3/3
f 361/4/3 357/4/3 356/4/3
f 361/3/3 356/3/3 360/3/3
f 362/4/3 357/4/3 361/4/3
f 363/3/4 364/3/4 368/3/4
f 368/3/4 364/3/4 369/3/4
f 365/3/4 366/3/4 370/3/4
f 366/4/4 367/4/4 371/4/4
f 370/3/4 366/3/4 371/3/4
f 371/4/4 367/4/4 372/4/4
f 373/3/4 374/3/4 378/3/4
f 378/3/4 374/3/4 379/3/4
f 375/3/4 376/3/4 380/3/4
f 376/4/4 377/4/4 381/4/4
f 380/3/4 376/3/4 381/3/4
f 381/4/4 377/4/4 382/4/4
f 383/2/4 384/2/4 385/2/4
f 385/2/4 384/2/4 386/2/4
f 387/2/4 388/2/4 389/2/4
f 389/2/4 388/2/4 390/2/4
f 391/2/4 392/2/4 393/2/4
f 393/2/4 392/2/4 394/2/4
f 395/2/4 396/2/4 397/2/4
f 397/2/4 396/2/4 398/2/4
f 399/2/4 400/2/4 401/2/4
f 401/2/4 400/2/4 402/2/4
f 403/2/4 404/2/4 405/2/4
f 405/2/4 404/2/4 406/2/4
f 407/3/4 408/3/4 412/3/4
f 412/3/4 408/3/4 413/3/4
f 409/3/4 410/3/4 414/3/4
f 410/4/4 411/4/4 415/4/4
f 414/3/4 410/3/4 415/3/4
f 415/4/4 411/4/4 416/4/4
f 417/3/4 418/3/4 422/3/4
f 422/3/4 418/3/4 423/3/4
f 419/3/4 420/3/4 424/3/4
f 420/4/4 421/4/4 425/4/4
f 424/3/4 420/3/4 425/3/4
f 425/4/4 421/4/4 426/4/4
f 427/2/4 428/2/4 429/2/4
f 429/2/4 428/2/4 430/2/4
f 431/2/4 432/2/4 433/2/4
f 433/2/4 432/2/4 434/2/4
f 435/2/4 436/2/4 437/2/4
f 437/2/4 436/2/4 438/2/4
f 439/2/4 440/2/4 441/2/4
f 441/2/4 440/2/4 442/2/4
f 443/2/4 444/2/4 445/2/4
f 445/2/4 444/2/4 446/2/4
f 447/2/4 448/2/4 449/2/4
f 449/2/4 448/2/4 450/2/4
f 451/3/4 452/3/4 455/3/4
f 455/3/4 452/3/4 456/3/4
f 452/4/4 453/4/4 457/4/4
f 456/3/4 452/3/4 457/3/4
f 457/4/4 453/4/4 458/4/4
f 455/3/4 456/3/4 459/3/4
f 454/3/4 455/3/4 459/3/4
f 459/3/4 456/3/4 460/3/4
f 460/3/4 456/3/4 462/3/4
f 461/3/4 462/3/4 463/3/4
f 462/3/4 456/3/4 464/3/4
f 463/3/4 462/3/4 464/3/4
f 464/3/4 456/3/4 465/3/4
f 464/3/4 465/3/4 468/3/4
f 465/3/4 466/3/4 468/3/4
f 466/4/4 467/4/4 469/4/4
f 468/3/4 466/3/4 469/3/4
f 469/4/4 467/4/4 470/4/4
f 475/3/5 472/3/5 471/3/5
f 476/3/5 472/3/5 475/3/5
f 477/3/5 474/3/5 473/3/5
f 478/3/5 474/3/5 477/3/5
f 485/2/5 480/2/5 479/2/5
f 486/2/5 480/2/5 485/2/5
f 487/2/5 482/2/5 481/2/5
f 488/2/5 482/2/5 487/2/5
f 489/2/5 484/2/5 483/2/5
f 490/2/5 484/2/5 489/2/5
f 493/3/5 488/3/5 487/3/5
f 494/3/5 488/3/5 493/3/5
f 497/2/5 492/2/5 491/2/5
f 498/2/5 492/2/5 497/2/5
f 499/2/5 494/2/5 493/2/5
f 500/2/5 494/2/5 499/2/5
f 501/2/5 496/2/5 495/2/5
f 502/2/5 496/2/5 501/2/5
f 505/3/5 500/3/5 499/3/5
f 506/3/5 500/3/5 505/3/5
f 509/2/5 504/2/5 503/2/5
f 510/2/5 504/2/5 509/2/5
f 511/2/5 506/2/5 505/2/5
f 512/2/5 506/2/5 511/2/5
f 513/2/5 508/2/5 507/2/5
f 514/2/5 508/2/5 513/2/5
f 517/3/5 512/3/5 511/3/5
f 518/3/5 512/3/5 517/3/5
f 521/2/5 516/2/5 515/2/5
f 522/2/5 516/2/5 521/2/5
f 523/2/5 518/2/5 517/2/5
f 524/2/5 518/2/5 523/2/5
f 525/2/5 520/2/5 519/2/5
f 526/2/5 520/2/5 525/2/5
f 529/3/5 524/3/5 523/3/5
f 530/3/5 524/3/5 529/3/5
f 533/2/5 528/2/5 527/2/5
f 534/2/5 528/2/5 533/2/5
f 535/2/5 530/2/5 529/2/5
f 536/2/5 530/2/5 535/2/5
f 537/2/5 530/2/5 536/2/5
f 537/3/5 536/3/5 535/3/5
f 538/2/5 530/2/5 537/2/5
f 539/2/5 532/2/5 531/2/5
f 540/2/5 532/2/5 539/2/5
f 543/3/5 538/3/5 537/3/5
f 543/3/5 537/3/5 535/3/5
f 544/3/5 538/3/5 543/3/5
f 547/2/5 542/2/5 541/2/5
f 548/2/5 542/2/5 547/2/5
f 549/2/5 544/2/5 543/2/5
f 550/2/5 544/2/5 549/2/5
f 551/2/5 546/2/5 545/2/5
f 552/2/5 546/2/5 551/2/5
f 555/3/5 550/3/5 549/3/5
f 556/3/5 550/3/5 555/3/5
f 559/2/5 554/2/5 553/2/5
f 560/2/5 554/2/5 559/2/5
f 561/2/5 556/2/5 555/2/5
f 562/2/5 556/2/5 561/2/5
f 563/2/5 558/2/5 557/2/5
f 564/2/5 558/2/5 563/2/5
f 565/3/5 560/3/5 559/3/5
f 566/3/5 560/3/5 565/3/5
f 567/3/5 562/3/5 561/3/5
f 568/3/5 562/3/5 567/3/5
f 569/3/5 564/3/5 563/3/5
f 570/3/5 564/3/5 569/3/5
f 575/3/5 572/3/5 571/3/5
f 576/3/5 572/3/5 575/3/5
f 577/3/5 574/3/5 573/3/5
f 578/3/5 574/3/5 577/3/5
f 583/3/5 580/3/5 579/3/5
f 584/3/5 580/3/5 583/3/5
f 585/3/5 582/3/5 581/3/5
f 586/3/5 582/3/5 585/3/5
f 587/3/6 588/3/6 589/3/6
f 589/3/6 588/3/6 590/3/6
f 590/3/6 588/3/6 591/3/6
f 592/1/6 593/1/6 597/1/6
f 593/2/6 594/2/6 598/2/6
f 597/1/6 593/1/6 598/1/6
f 594/1/6 595/1/6 599/1/6
f 598/2/6 594/2/6 599/2/6
f 599/1/6 595/1/6 600/1/6
f 597/2/6 598/2/6 602/2/6
f 600/2/6 601/2/6 602/2/6
f 599/2/6 600/2/6 602/2/6
f 598/2/6 599/2/6 602/2/6
f 596/2/6 597/2/6 602/2/6
f 602/2/6 601/2/6 603/2/6
f 603/2/6 601/2/6 604/2/6
f 604/2/6 601/2/6 605/2/6
f 603/3/6 604/3/6 607/3/6
f 607/3/6 604/3/6 608/3/6
f 606/2/6 607/2/6 610/2/6
f 608/2/6 609/2/6 610/2/6
f 607/2/6 608/2/6 610/2/6
f 610/2/6 609/2/6 611/2/6
f 611/2/6 609/2/6 612/2/6
f 612/2/6 609/2/6 613/2/6
f 606/2/6 610/2/6 614/2/6
f 610/1/6 611/1/6 614/1/6
f 611/2/6 612/2/6 615/2/6
f 614/1/6 611/1/6 615/1/6
f 612/1/6 613/1/6 616/1/6
f 615/2/6 612/2/6 616/2/6
f 613/2/6 609/2/6 617/2/6
f 616/1/6 613/1/6 617/1/6
f 615/2/6 616/2/6 618/2/6
f 614/2/6 615/2/6 618/2/6
f 616/2/6 617/2/6 618/2/6
f 606/2/6 614/2/6 618/2/6
f 618/2/6 617/2/6 619/2/6
f 617/2/6 609/2/6 620/2/6
f 619/2/6 617/2/6 620/2/6
f 620/2/6 609/2/6 621/2/6
f 619/3/6 620/3/6 623/3/6
f 623/3/6 620/3/6 624/3/6
f 622/2/6 623/2/6 626/2/6
f 624/2/6 625/2/6 626/2/6
f 623/2/6 624/2/6 626/2/6
f 626/2/6 625/2/6 627/2/6
f 627/2/6 625/2/6 628/2/6
f 628/2/6 625/2/6 629/2/6
f 622/2/6 626/2/6 630/2/6
f 626/1/6 627/1/6 631/1/6
f 630/2/6 626/2/6 631/2/6
f 627/2/6 628/2/6 632/2/6
f 631/1/6 627/1/6 632/1/6
f 628/1/6 629/1/6 633/1/6
f 632/2/6 628/2/6 633/2/6
f 629/2/6 625/2/6 634/2/6
f 633/1/6 629/1/6 634/1/6
f 634/2/6 625/2/6 635/2/6
f 632/3/6 633/3/6 636/3/6
f 633/3/6 634/3/6 636/3/6
f 631/3/6 632/3/6 636/3/6
f 636/3/6 634/3/6 637/3/6
f 636/2/6 637/2/6 639/2/6
f 639/2/6 637/2/6 640/2/6
f 639/2/6 640/2/6 642/2/6
f 640/2/6 641/2/6 642/2/6
f 638/2/6 639/2/6 642/2/6
f 642/2/6 641/2/6 643/2/6
f 643/2/6 641/2/6 644/2/6
f 644/2/6 641/2/6 645/2/6
f 638/2/6 642/2/6 646/2/6
f 642/1/6 643/1/6 647/1/6
f 646/2/6 642/2/6 647/2/6
f 643/2/6 644/2/6 648/2/6
f 647/1/6 643/1/6 648/1/6
f 644/1/6 645/1/6 649/1/6
f 648/2/6 644/2/6 649/2/6
f 645/2/6 641/2/6 650/2/6
f 649/1/6 645/1/6 650/1/6
f 650/2/6 641/2/6 651/2/6
f 648/3/6 649/3/6 653/3/6
f 649/3/6 650/3/6 653/3/6
f 647/3/6 648/3/6 653/3/6
f 653/3/6 650/3/6 654/3/6
f 652/2/6 653/2/6 656/2/6
f 654/2/6 655/2/6 656/2/6
f 653/2/6 654/2/6 656/2/6
f 656/2/6 655/2/6 657/2/6
f 657/2/6 655/2/6 658/2/6
f 657/3/6 658/3/6 659/3/6
f 659/3/6 658/3/6 660/3/6
f 658/2/6 655/2/6 661/2/6
f 660/3/6 658/3/6 661/3/6
f 661/2/6 655/2/6 662/2/6
f 662/2/6 655/2/6 663/2/6
f 663/2/6 655/2/6 664/2/6
f 659/1/6 660/1/6 666/1/6
f 660/3/6 661/3/6 667/3/6
f 661/3/6 662/3/6 667/3/6
f 666/1/6 660/1/6 667/1/6
f 662/1/6 663/1/6 668/1/6
f 667/3/6 662/3/6 668/3/6
f 668/1/6 663/1/6 669/1/6
f 665/2/6 666/2/6 671/2/6
f 669/2/6 670/2/6 671/2/6
f 668/2/6 669/2/6 671/2/6
f 667/2/6 668/2/6 671/2/6
f 666/2/6 667/2/6 671/2/6
f 671/2/6 670/2/6 672/2/6
f 672/2/6 670/2/6 673/2/6
f 673/2/6 670/2/6 674/2/6
f 672/3/6 673/3/6 676/3/6
f 676/3/6 673/3/6 677/3/6
f 677/3/6 673/3/6 678/3/6
f 678/3/6 673/3/6 679/3/6
f 675/2/6 676/2/6 681/2/6
f 676/1/6 677/1/6 681/1/6
f 677/2/6 678/2/6 682/2/6
f 681/1/6 677/1/6 682/1/6
f 678/1/6 679/1/6 683/1/6
f 682/2/6 678/2/6 683/2/6
f 679/2/6 680/2/6 684/2/6
f 683/1/6 679/1/6 684/1/6
f 682/2/6 683/2/6 685/2/6
f 681/2/6 682/2/6 685/2/6
f 683/2/6 684/2/6 685/2/6
f 675/2/6 681/2/6 685/2/6
f 685/2/6 684/2/6 686/2/6
f 684/2/6 680/2/6 687/2/6
f 686/2/6 684/2/6 687/2/6
f 687/2/6 680/2/6 688/2/6
f 686/3/6 687/3/6 689/3/6
f 689/3/6 687/3/6 690/3/6
f 691/3/6 692/3/6 695/3/6
f 695/3/6 692/3/6 696/3/6
f 693/3/6 694/3/6 697/3/6
f 697/3/6 694/3/6 698/3/6
f 699/3/6 700/3/6 703/3/6
f 703/3/6 700/3/6 704/3/6
f 701/3/6 702/3/6 705/3/6
f 705/3/6 702/3/6 706/3/6
f 707/4/6 708/4/6 711/4/6
f 711/4/6 708/4/6 712/4/6
f 709/4/6 710/4/6 713/4/6
f 713/4/6 710/4/6 714/4/6
f 715/4/6 716/4/6 719/4/6
f 719/4/6 716/4/6 720/4/6
f 717/4/6 718/4/6 721/4/6
f 721/4/6 718/4/6 722/4/6
f 723/4/6 724/4/6 727/4/6
f 727/4/6 724/4/6 728/4/6
f 725/4/6 726/4/6 729/4/6
f 729/4/6 726/4/6 730/4/6
